<svg width="44" height="45" viewBox="0 0 44 45" fill="none" xmlns="http://www.w3.org/2000/svg">
<g clip-path="url(#clip0_162_5468)">
<path d="M22 21.2176C24.8432 21.2176 27.1562 18.9045 27.1562 16.0613C27.1562 13.2182 24.8432 10.9051 22 10.9051C19.1568 10.9051 16.8438 13.2182 16.8438 16.0613C16.8438 18.9045 19.1568 21.2176 22 21.2176ZM22 14.3426C22.9477 14.3426 23.7188 15.1136 23.7188 16.0613C23.7188 17.0091 22.9477 17.7801 22 17.7801C21.0523 17.7801 20.2812 17.0091 20.2812 16.0613C20.2812 15.1136 21.0523 14.3426 22 14.3426Z" fill="#2B6CF5"/>
<path d="M37.4688 16.0613C37.4688 7.53187 30.5295 0.59259 22 0.59259C13.4705 0.59259 6.53125 7.53187 6.53125 16.0613C6.53125 19.4357 7.59877 22.6425 9.61847 25.3352L17.8735 36.341C18.8431 37.6335 20.3857 38.4051 22 38.4051C23.6143 38.4051 25.1569 37.6335 26.1266 36.3408L34.3815 25.3352C36.4012 22.6425 37.4688 19.4357 37.4688 16.0613ZM31.6316 23.2725L23.3768 34.278C23.048 34.7163 22.5462 34.9676 22 34.9676C21.4538 34.9676 20.952 34.7163 20.6233 34.2782L12.3684 23.2725C10.7986 21.1796 9.96875 18.686 9.96875 16.0613C9.96875 9.42731 15.366 4.03009 22 4.03009C28.634 4.03009 34.0312 9.42731 34.0312 16.0613C34.0312 18.686 33.2014 21.1796 31.6316 23.2725Z" fill="#2B6CF5"/>
<path d="M30.5938 42.8738C30.5938 41.9246 29.8243 41.1551 28.875 41.1551H15.125C14.1757 41.1551 13.4062 41.9246 13.4062 42.8738C13.4062 43.8231 14.1757 44.5926 15.125 44.5926H28.875C29.8243 44.5926 30.5938 43.8231 30.5938 42.8738Z" fill="#2B6CF5"/>
</g>
<defs>
<clipPath id="clip0_162_5468">
<rect width="44" height="44" fill="white" transform="translate(0 0.59259)"/>
</clipPath>
</defs>
</svg>
