<svg width="158" height="90" viewBox="0 0 158 90" fill="none" xmlns="http://www.w3.org/2000/svg">
<path d="M28.7 65L41.35 48.7L42.5 49.9C42 50.2667 41.5167 50.5667 41.05 50.8C40.5833 51.0333 40.0833 51.2 39.55 51.3C39.0167 51.4 38.45 51.45 37.85 51.45C35.5833 51.45 33.5667 50.9333 31.8 49.9C30.0333 48.8667 28.6333 47.4667 27.6 45.7C26.6 43.9 26.1 41.8667 26.1 39.6C26.1 37.2 26.65 35.0667 27.75 33.2C28.8833 31.3333 30.4167 29.8667 32.35 28.8C34.3167 27.7 36.55 27.15 39.05 27.15C41.5833 27.15 43.8167 27.6833 45.75 28.75C47.6833 29.8167 49.2 31.2833 50.3 33.15C51.4333 34.9833 52 37.1 52 39.5C52 40.7 51.8667 41.9 51.6 43.1C51.3333 44.3 50.85 45.5833 50.15 46.95C49.4833 48.2833 48.5167 49.8 47.25 51.5L36.85 65H28.7ZM39.05 45.75C40.2167 45.75 41.25 45.5 42.15 45C43.0833 44.4667 43.8167 43.7333 44.35 42.8C44.8833 41.8333 45.15 40.75 45.15 39.55C45.15 38.2833 44.8667 37.1833 44.3 36.25C43.7667 35.3167 43.05 34.5833 42.15 34.05C41.25 33.5167 40.2167 33.25 39.05 33.25C37.9167 33.25 36.8833 33.5167 35.95 34.05C35.0167 34.5833 34.2667 35.3167 33.7 36.25C33.1667 37.1833 32.9 38.2833 32.9 39.55C32.9 40.75 33.1667 41.8333 33.7 42.8C34.2667 43.7333 35.0167 44.4667 35.95 45C36.8833 45.5 37.9167 45.75 39.05 45.75ZM67.8781 65.6C65.1781 65.6 62.8281 65.1 60.8281 64.1C58.8615 63.0667 57.3281 61.6833 56.2281 59.95C55.1615 58.2167 54.6281 56.3167 54.6281 54.25C54.6281 51.8167 55.2781 49.7667 56.5781 48.1C57.8781 46.4 59.7615 45.15 62.2281 44.35L61.8281 46C60.0615 45.4333 58.6615 44.3333 57.6281 42.7C56.6281 41.0667 56.1281 39.2667 56.1281 37.3C56.1281 35.3333 56.6281 33.5833 57.6281 32.05C58.6281 30.5167 60.0115 29.3167 61.7781 28.45C63.5448 27.5833 65.5781 27.15 67.8781 27.15C70.1448 27.15 72.1448 27.5833 73.8781 28.45C75.6448 29.3167 77.0281 30.5167 78.0281 32.05C79.0615 33.5833 79.5781 35.3333 79.5781 37.3C79.5781 39.3 79.0615 41.1167 78.0281 42.75C77.0281 44.35 75.6448 45.45 73.8781 46.05L73.5281 44.3C75.9948 45.1667 77.8781 46.45 79.1781 48.15C80.4781 49.8167 81.1281 51.8667 81.1281 54.3C81.1281 56.3667 80.5781 58.2667 79.4781 60C78.4115 61.7 76.8781 63.0667 74.8781 64.1C72.9115 65.1 70.5781 65.6 67.8781 65.6ZM67.8781 59.85C69.1781 59.85 70.3115 59.6167 71.2781 59.15C72.2448 58.65 72.9948 57.9667 73.5281 57.1C74.0615 56.2 74.3281 55.1833 74.3281 54.05C74.3281 52.8833 74.0615 51.8833 73.5281 51.05C72.9948 50.1833 72.2448 49.5167 71.2781 49.05C70.3115 48.55 69.1781 48.3 67.8781 48.3C66.5781 48.3 65.4448 48.55 64.4781 49.05C63.5448 49.5167 62.8115 50.1833 62.2781 51.05C61.7448 51.8833 61.4781 52.8833 61.4781 54.05C61.4781 55.1833 61.7448 56.2 62.2781 57.1C62.8115 57.9667 63.5448 58.65 64.4781 59.15C65.4448 59.6167 66.5781 59.85 67.8781 59.85ZM67.8781 42.55C68.8448 42.55 69.6948 42.3333 70.4281 41.9C71.1615 41.4667 71.7281 40.9 72.1281 40.2C72.5615 39.4667 72.7781 38.6333 72.7781 37.7C72.7781 36.7667 72.5615 35.95 72.1281 35.25C71.7281 34.5167 71.1615 33.95 70.4281 33.55C69.6948 33.1167 68.8448 32.9 67.8781 32.9C66.9115 32.9 66.0448 33.1167 65.2781 33.55C64.5448 33.95 63.9615 34.5167 63.5281 35.25C63.1281 35.95 62.9281 36.7667 62.9281 37.7C62.9281 38.6333 63.1281 39.4667 63.5281 40.2C63.9615 40.9 64.5448 41.4667 65.2781 41.9C66.0448 42.3333 66.9115 42.55 67.8781 42.55ZM89.3199 65L119.52 27.75H126.52L96.3199 65H89.3199ZM95.1199 46.65C93.2866 46.65 91.6199 46.2167 90.1199 45.35C88.6533 44.45 87.4866 43.2667 86.6199 41.8C85.7533 40.3333 85.3199 38.7 85.3199 36.9C85.3199 35.1 85.7533 33.4667 86.6199 32C87.4866 30.5 88.6533 29.3167 90.1199 28.45C91.6199 27.5833 93.2866 27.15 95.1199 27.15C96.9866 27.15 98.6533 27.5833 100.12 28.45C101.587 29.3167 102.753 30.5 103.62 32C104.487 33.4667 104.92 35.1 104.92 36.9C104.92 38.7 104.487 40.3333 103.62 41.8C102.753 43.2667 101.587 44.45 100.12 45.35C98.6533 46.2167 96.9866 46.65 95.1199 46.65ZM95.1199 41.6C96.1199 41.6 96.9533 41.3833 97.6199 40.95C98.2866 40.4833 98.7866 39.9 99.1199 39.2C99.4866 38.4667 99.6699 37.7 99.6699 36.9C99.6699 36.0667 99.4866 35.3 99.1199 34.6C98.7866 33.9 98.2866 33.3167 97.6199 32.85C96.9533 32.3833 96.1199 32.15 95.1199 32.15C94.1866 32.15 93.3699 32.3833 92.6699 32.85C92.0033 33.3167 91.4866 33.9167 91.1199 34.65C90.7533 35.35 90.5699 36.1 90.5699 36.9C90.5699 37.6667 90.7533 38.4167 91.1199 39.15C91.4866 39.8833 92.0033 40.4833 92.6699 40.95C93.3699 41.3833 94.1866 41.6 95.1199 41.6ZM120.52 65.6C118.687 65.6 117.02 65.1667 115.52 64.3C114.053 63.4 112.887 62.2167 112.02 60.75C111.153 59.2833 110.72 57.65 110.72 55.85C110.72 54.05 111.153 52.4167 112.02 50.95C112.887 49.45 114.053 48.2667 115.52 47.4C117.02 46.5333 118.687 46.1 120.52 46.1C122.387 46.1 124.053 46.5333 125.52 47.4C126.987 48.2667 128.153 49.45 129.02 50.95C129.887 52.4167 130.32 54.05 130.32 55.85C130.32 57.65 129.887 59.2833 129.02 60.75C128.153 62.2167 126.987 63.4 125.52 64.3C124.053 65.1667 122.387 65.6 120.52 65.6ZM120.52 60.55C121.487 60.55 122.303 60.3333 122.97 59.9C123.67 59.4333 124.187 58.85 124.52 58.15C124.887 57.4167 125.07 56.65 125.07 55.85C125.07 55.0167 124.887 54.25 124.52 53.55C124.187 52.85 123.67 52.2667 122.97 51.8C122.303 51.3333 121.487 51.1 120.52 51.1C119.587 51.1 118.77 51.3333 118.07 51.8C117.403 52.2667 116.887 52.8667 116.52 53.6C116.153 54.3 115.97 55.05 115.97 55.85C115.97 56.6167 116.153 57.3667 116.52 58.1C116.887 58.8333 117.403 59.4333 118.07 59.9C118.77 60.3333 119.587 60.55 120.52 60.55Z" fill="url(#paint0_linear_185_801)"/>
<rect x="1" y="1" width="156" height="88" rx="15" stroke="url(#paint1_linear_185_801)" stroke-width="2"/>
<defs>
<linearGradient id="paint0_linear_185_801" x1="131.885" y1="16" x2="77.287" y2="105.608" gradientUnits="userSpaceOnUse">
<stop stop-color="#1C92FF"/>
<stop offset="1" stop-color="#0044D3"/>
</linearGradient>
<linearGradient id="paint1_linear_185_801" x1="154.962" y1="-1.95481e-06" x2="67.3977" y2="133.03" gradientUnits="userSpaceOnUse">
<stop stop-color="#1C92FF"/>
<stop offset="1" stop-color="#0044D3"/>
</linearGradient>
</defs>
</svg>
