<svg width="96" height="96" viewBox="0 0 96 96" fill="none" xmlns="http://www.w3.org/2000/svg">
<path d="M20.8535 49.5399H35.4284L41.8084 37.9553L51.3957 60.063L56.5317 49.5399H75.0441" stroke="#B6CAE0" stroke-width="1.5" stroke-miterlimit="10"/>
<path d="M77.9772 38.3548V41.5734C77.9087 42.4408 77.7147 43.3196 77.4179 44.2327C76.6418 46.5952 75.1581 49.1062 73.1151 51.7541C72.3846 52.7128 71.5743 53.6943 70.7069 54.6873C69.9878 55.5205 69.2117 56.3651 68.4128 57.2211C66.7579 58.9787 64.9431 60.7934 63.0143 62.6652C60.4006 65.199 57.5701 67.8241 54.6369 70.529C54.2945 70.8486 53.9407 71.1339 53.564 71.3965C52.6966 71.9899 51.7493 72.4351 50.7563 72.709C48.7248 73.2911 46.5334 73.2226 44.5475 72.4921C43.5431 72.1269 42.5958 71.5905 41.7398 70.8943C41.6028 70.7801 41.4544 70.6546 41.3289 70.529C38.2929 67.7099 35.4054 65.0506 32.7803 62.5055C30.8286 60.6222 29.0139 58.8189 27.3704 57.0727C26.6057 56.2624 25.8866 55.4634 25.2018 54.6873C24.323 53.6943 23.5241 52.7128 22.7936 51.7541C20.762 49.1062 19.3011 46.6181 18.5479 44.2327C18.2625 43.331 18.0799 42.4408 18 41.5734V38.3548C18.1484 36.5287 18.5136 34.8737 19.05 33.3786C19.9745 30.7649 21.4012 28.6535 23.0904 27.0328C25.5899 24.6245 28.6601 23.2892 31.502 23.0381C32.4607 22.9468 33.3738 22.9125 34.2184 22.9125C37.3571 22.9125 39.731 23.4946 41.7626 24.5446C42.767 25.0697 43.6915 25.6974 44.5703 26.4278C45.7459 27.4094 46.853 28.5621 48.0057 29.8633C48.9416 28.8132 49.8433 27.8545 50.7791 26.9985C51.6694 26.1996 52.5825 25.492 53.5868 24.8985C55.744 23.6316 58.3005 22.9011 61.7816 22.9011C62.6262 22.9011 63.5279 22.9354 64.498 23.0267C67.2829 23.2778 70.2846 24.5561 72.7499 26.8616C74.4619 28.4594 75.9228 30.5595 76.8701 33.1503C77.4407 34.7025 77.8402 36.4374 78 38.3434L77.9772 38.3548Z" stroke="#2B6CF5" stroke-width="4" stroke-miterlimit="10"/>
</svg>
