<svg width="96" height="96" viewBox="0 0 96 96" fill="none" xmlns="http://www.w3.org/2000/svg">
<path d="M72.4188 72.5679C65.1048 79.843 53.2779 79.8041 46.0159 72.4901L23.5034 49.835C16.2283 42.521 16.2672 30.6942 23.5812 23.4321C30.8951 16.157 42.722 16.1959 49.9841 23.5099L72.4966 46.165C79.7716 53.479 79.7327 65.3058 72.4188 72.5679V72.5679Z" stroke="#2B6CF5" stroke-width="4" stroke-miterlimit="10"/>
<path d="M36.2358 43.8788L43.935 36.2279C46.207 33.9701 49.8749 33.9816 52.1327 36.2536L59.7837 43.9528C62.0415 46.2249 62.0299 49.8927 59.7579 52.1506L52.0587 59.8015C49.7867 62.0593 46.1188 62.0478 43.861 59.7758L36.21 52.0766C33.9522 49.8046 33.9637 46.1367 36.2358 43.8788Z" fill="#B6CAE0"/>
<path d="M42.8771 47.3063C43.5644 47.9936 43.5644 49.0958 42.8771 49.7831C42.1898 50.4705 41.0876 50.4705 40.4002 49.7831C39.7129 49.0958 39.7129 47.9936 40.4002 47.3063C41.0876 46.6189 42.1898 46.6189 42.8771 47.3063Z" fill="#2B6CF5"/>
<path d="M49.7893 40.4071C50.4766 41.0944 50.4766 42.1967 49.7893 42.884C49.1019 43.5713 47.9997 43.5713 47.3124 42.884C46.625 42.1967 46.625 41.0944 47.3124 40.4071C47.9997 39.7198 49.1019 39.7198 49.7893 40.4071Z" fill="#2B6CF5"/>
<path d="M48.6877 53.1158C49.375 53.8031 49.375 54.9054 48.6877 55.5927C48.0004 56.28 46.8981 56.28 46.2108 55.5927C45.5235 54.9054 45.5235 53.8031 46.2108 53.1158C46.8981 52.4285 48.0004 52.4285 48.6877 53.1158Z" fill="#2B6CF5"/>
<path d="M55.5998 46.2169C56.2871 46.9042 56.2871 48.0065 55.5998 48.6938C54.9125 49.3811 53.8102 49.3811 53.1229 48.6938C52.4356 48.0065 52.4356 46.9042 53.1229 46.2169C53.8102 45.5296 54.9125 45.5296 55.5998 46.2169Z" fill="#2B6CF5"/>
<path d="M49.9837 23.5098L72.4962 46.1649C73.0927 46.7744 73.6374 47.4228 74.1302 48.0842C79.7324 40.7832 79.2266 30.292 72.5611 23.5876C65.8955 16.8831 55.4044 16.3125 48.0645 21.8628C48.7258 22.3686 49.3613 22.9003 49.9708 23.5098H49.9837Z" stroke="#2B6CF5" stroke-width="4" stroke-miterlimit="10"/>
<path d="M46.0157 72.4902L23.5032 49.835C22.9067 49.2255 22.362 48.5771 21.8693 47.9158C16.2671 55.2168 16.7728 65.7079 23.4384 72.4124C30.104 79.1168 40.5951 79.6874 47.935 74.1371C47.2736 73.6314 46.6382 73.0997 46.0287 72.4902H46.0157Z" stroke="#2B6CF5" stroke-width="4" stroke-miterlimit="10"/>
</svg>
