<svg width="54" height="54" viewBox="0 0 54 54" fill="none" xmlns="http://www.w3.org/2000/svg">
<rect width="54" height="54" rx="27" fill="#2B6CF5"/>
<path d="M25.0446 32.1335C25.5206 31.7765 26.0996 31.5835 26.6946 31.5835H33.4168C33.9231 31.5835 34.3335 31.1731 34.3335 30.6668V23.3335C34.3335 22.8272 33.9231 22.4168 33.4168 22.4168H20.5835C20.0772 22.4168 19.6668 22.8272 19.6668 23.3335V30.6668C19.6668 31.1731 20.0772 31.5835 20.5835 31.5835H22.4168C22.9231 31.5835 23.3335 31.9939 23.3335 32.5002V33.4168L25.0446 32.1335ZM20.5835 33.4168C19.0647 33.4168 17.8335 32.1856 17.8335 30.6668V23.3335C17.8335 21.8147 19.0647 20.5835 20.5835 20.5835H33.4168C34.9356 20.5835 36.1668 21.8147 36.1668 23.3335V30.6668C36.1668 32.1856 34.9356 33.4168 33.4168 33.4168H26.6946C26.4963 33.4168 26.3033 33.4812 26.1446 33.6002L22.9668 35.9835C22.3625 36.4367 21.5002 36.0055 21.5002 35.2502V33.4168H20.5835Z" fill="white"/>
<path d="M23.3337 27.9168C23.8399 27.9168 24.2503 27.5064 24.2503 27.0002C24.2503 26.4939 23.8399 26.0835 23.3337 26.0835C22.8274 26.0835 22.417 26.4939 22.417 27.0002C22.417 27.5064 22.8274 27.9168 23.3337 27.9168Z" fill="white"/>
<path d="M27.0002 27.9168C27.5064 27.9168 27.9168 27.5064 27.9168 27.0002C27.9168 26.4939 27.5064 26.0835 27.0002 26.0835C26.4939 26.0835 26.0835 26.4939 26.0835 27.0002C26.0835 27.5064 26.4939 27.9168 27.0002 27.9168Z" fill="white"/>
<path d="M30.6667 27.9168C31.1729 27.9168 31.5833 27.5064 31.5833 27.0002C31.5833 26.4939 31.1729 26.0835 30.6667 26.0835C30.1604 26.0835 29.75 26.4939 29.75 27.0002C29.75 27.5064 30.1604 27.9168 30.6667 27.9168Z" fill="white"/>
</svg>
