<svg width="80" height="54" viewBox="0 0 80 54" fill="none" xmlns="http://www.w3.org/2000/svg">
<mask id="mask0_211_1090" style="mask-type:alpha" maskUnits="userSpaceOnUse" x="0" y="0" width="80" height="54">
<rect width="80" height="54" fill="white"/>
</mask>
<g mask="url(#mask0_211_1090)">
<path d="M23.01 68.78C19.1533 68.78 15.7733 67.74 12.87 65.66C9.96667 63.58 7.69167 60.655 6.045 56.885C4.44167 53.115 3.64 48.7383 3.64 43.755C3.64 38.7283 4.44167 34.3517 6.045 30.625C7.64833 26.8983 9.90167 23.995 12.805 21.915C15.7083 19.835 19.0883 18.795 22.945 18.795C26.8883 18.795 30.29 19.835 33.15 21.915C36.0533 23.995 38.3283 26.92 39.975 30.69C41.6217 34.4167 42.445 38.7717 42.445 43.755C42.445 48.7383 41.6217 53.115 39.975 56.885C38.3717 60.6117 36.1183 63.5367 33.215 65.66C30.3117 67.74 26.91 68.78 23.01 68.78ZM23.075 60.72C25.285 60.72 27.17 60.0483 28.73 58.705C30.29 57.3183 31.4817 55.3683 32.305 52.855C33.1717 50.2983 33.605 47.265 33.605 43.755C33.605 40.245 33.1717 37.2333 32.305 34.72C31.4817 32.1633 30.2683 30.2133 28.665 28.87C27.105 27.5267 25.1983 26.855 22.945 26.855C20.7783 26.855 18.915 27.5267 17.355 28.87C15.795 30.2133 14.5817 32.1633 13.715 34.72C12.8917 37.2333 12.48 40.245 12.48 43.755C12.48 47.2217 12.8917 50.2333 13.715 52.79C14.5817 55.3033 15.795 57.2533 17.355 58.64C18.9583 60.0267 20.865 60.72 23.075 60.72ZM62.0655 68.78C59.4222 68.78 56.9088 68.3033 54.5255 67.35C52.1855 66.3533 50.1705 64.9667 48.4805 63.19C46.8338 61.37 45.7072 59.225 45.1005 56.755L52.8355 54.025C53.6155 56.235 54.8072 57.925 56.4105 59.095C58.0138 60.2217 59.8988 60.785 62.0655 60.785C63.7988 60.785 65.2938 60.46 66.5505 59.81C67.8505 59.16 68.8688 58.2283 69.6055 57.015C70.3422 55.7583 70.7105 54.285 70.7105 52.595C70.7105 50.905 70.3422 49.475 69.6055 48.305C68.9122 47.0917 67.9155 46.16 66.6155 45.51C65.3155 44.86 63.7772 44.535 62.0005 44.535C61.1772 44.535 60.3105 44.6217 59.4005 44.795C58.5338 44.9683 57.7538 45.2283 57.0605 45.575L55.0455 41.35L67.5905 27.05H47.8305V19.575H77.5355V26.53L64.9255 41.285L65.0555 37.97C67.9588 38.0133 70.4938 38.6417 72.6605 39.855C74.8272 41.0683 76.5172 42.7367 77.7305 44.86C78.9438 46.9833 79.5505 49.475 79.5505 52.335C79.5505 55.455 78.7922 58.2717 77.2755 60.785C75.7588 63.255 73.6788 65.205 71.0355 66.635C68.3922 68.065 65.4022 68.78 62.0655 68.78Z" fill="white"/>
</g>
</svg>
