<svg width="80" height="54" viewBox="0 0 80 54" fill="none" xmlns="http://www.w3.org/2000/svg">
<mask id="mask0_211_1087" style="mask-type:alpha" maskUnits="userSpaceOnUse" x="0" y="0" width="80" height="54">
<rect width="80" height="54" fill="white"/>
</mask>
<g mask="url(#mask0_211_1087)">
<path d="M23.01 68.78C19.1533 68.78 15.7733 67.74 12.87 65.66C9.96667 63.58 7.69167 60.655 6.045 56.885C4.44167 53.115 3.64 48.7383 3.64 43.755C3.64 38.7283 4.44167 34.3517 6.045 30.625C7.64833 26.8983 9.90167 23.995 12.805 21.915C15.7083 19.835 19.0883 18.795 22.945 18.795C26.8883 18.795 30.29 19.835 33.15 21.915C36.0533 23.995 38.3283 26.92 39.975 30.69C41.6217 34.4167 42.445 38.7717 42.445 43.755C42.445 48.7383 41.6217 53.115 39.975 56.885C38.3717 60.6117 36.1183 63.5367 33.215 65.66C30.3117 67.74 26.91 68.78 23.01 68.78ZM23.075 60.72C25.285 60.72 27.17 60.0483 28.73 58.705C30.29 57.3183 31.4817 55.3683 32.305 52.855C33.1717 50.2983 33.605 47.265 33.605 43.755C33.605 40.245 33.1717 37.2333 32.305 34.72C31.4817 32.1633 30.2683 30.2133 28.665 28.87C27.105 27.5267 25.1983 26.855 22.945 26.855C20.7783 26.855 18.915 27.5267 17.355 28.87C15.795 30.2133 14.5817 32.1633 13.715 34.72C12.8917 37.2333 12.48 40.245 12.48 43.755C12.48 47.2217 12.8917 50.2333 13.715 52.79C14.5817 55.3033 15.795 57.2533 17.355 58.64C18.9583 60.0267 20.865 60.72 23.075 60.72ZM46.0105 68V61.305L59.1405 47.59C61.7405 44.86 63.7338 42.6933 65.1205 41.09C66.5505 39.4433 67.5472 38.035 68.1105 36.865C68.6738 35.695 68.9555 34.5033 68.9555 33.29C68.9555 31.2533 68.3055 29.65 67.0055 28.48C65.7488 27.31 64.1238 26.725 62.1305 26.725C60.0505 26.725 58.2522 27.3317 56.7355 28.545C55.2188 29.715 54.1138 31.4483 53.4205 33.745L45.6855 31.34C46.2055 28.7833 47.2672 26.5733 48.8705 24.71C50.4738 22.8033 52.4238 21.3517 54.7205 20.355C57.0605 19.315 59.5305 18.795 62.1305 18.795C65.2505 18.795 67.9805 19.3583 70.3205 20.485C72.7038 21.6117 74.5455 23.1933 75.8455 25.23C77.1888 27.2667 77.8605 29.65 77.8605 32.38C77.8605 34.1133 77.5355 35.825 76.8855 37.515C76.2355 39.205 75.2605 40.9383 73.9605 42.715C72.6605 44.4483 70.9705 46.3983 68.8905 48.565L57.5155 60.525H78.5105V68H46.0105Z" fill="white"/>
</g>
</svg>
