<svg xmlns="http://www.w3.org/2000/svg" width="190" height="36" fill="none" viewBox="0 0 190 36">
  <g clip-path="url(#a)">
    <path fill="#2B6CF5" d="m26.823 26.24 8.53-8.6a9.17 9.17 0 0 0 2.652-6.47c0-2.342-.883-4.69-2.652-6.47a9.018 9.018 0 0 0-6.417-2.673 9.01 9.01 0 0 0-6.416 2.669l-2.53 2.55-2.495-2.516a9.005 9.005 0 0 0-6.417-2.669v-.005c-2.323 0-4.651.89-6.416 2.674A9.17 9.17 0 0 0 2.01 11.2c0 2.343.882 4.69 2.647 6.47l16.755 16.892L19.986 36 3.23 19.107C1.078 16.933 0 14.071 0 11.2c0-2.872 1.078-5.734 3.23-7.908A10.99 10.99 0 0 1 11.073.035V.03a11.01 11.01 0 0 1 7.843 3.262l1.07 1.077 1.102-1.112A11 11 0 0 1 28.93 0a11 11 0 0 1 7.839 3.257C38.922 5.427 40 8.293 40 11.165c0 2.871-1.078 5.733-3.23 7.908l-8.53 8.6-1.426-1.439.01.005Zm-2.338-3.386 8.02-8.086a5.095 5.095 0 0 0 1.47-3.598c0-1.305-.49-2.61-1.47-3.598a5.018 5.018 0 0 0-3.57-1.478v-.005a5.012 5.012 0 0 0-3.568 1.483l-5.377 5.421-5.343-5.387a5.01 5.01 0 0 0-3.569-1.482v.004A5.019 5.019 0 0 0 7.51 7.606a5.102 5.102 0 0 0-1.465 3.598H6.04c0 1.305.49 2.61 1.47 3.599l16.755 16.892-1.426 1.438L6.083 16.24a7.134 7.134 0 0 1-2.053-5.036h-.005c0-1.824.686-3.652 2.058-5.036a7.009 7.009 0 0 1 4.995-2.076v.005c1.815 0 3.623.692 4.99 2.071l3.918 3.949 3.95-3.984a7.013 7.013 0 0 1 4.99-2.07v-.005c1.81 0 3.623.691 4.996 2.075a7.135 7.135 0 0 1 2.054 5.036 7.142 7.142 0 0 1-2.054 5.037l-8.02 8.085-1.427-1.438h.01Zm-2.872-2.852 8.039-8.105c.191-.198.29-.46.29-.727a1.04 1.04 0 0 0-.29-.726 1.025 1.025 0 0 0-.72-.292c-.266 0-.525.1-.72.292l-8.226 8.293-8.192-8.259a1.017 1.017 0 0 0-.72-.291c-.265 0-.53.098-.721.291h-.005c-.19.193-.284.455-.284.727 0 .272.093.533.284.726l16.75 16.888-1.426 1.439-16.75-16.89v-.004a3.061 3.061 0 0 1-.878-2.16c0-.786.294-1.566.878-2.16a3.019 3.019 0 0 1 2.142-.884c.775 0 1.56.297 2.147.885l6.764 6.82 6.799-6.855a3.006 3.006 0 0 1 2.142-.88c.78 0 1.56.291 2.143.88h.005a3.06 3.06 0 0 1 .872 2.165 3.05 3.05 0 0 1-.872 2.16v.004l-8.04 8.105-1.426-1.438.014-.005Z"/>
  </g>
  <path fill="#2B6CF5" d="M63.43 14.16V6.62h-4.94V28h4.94v-2.254c.895 1.416 2.6 2.485 4.97 2.485 3.957 0 7.107-3.236 7.107-8.32 0-5.086-3.12-8.264-7.108-8.264-2.311 0-4.074 1.069-4.97 2.514Zm7.05 5.75c0 2.572-1.676 4.016-3.554 4.016-1.85 0-3.525-1.416-3.525-3.987s1.675-3.987 3.525-3.987c1.878 0 3.553 1.387 3.553 3.958Zm14.282-4.305c1.647 0 3.033 1.011 3.033 2.774h-6.183c.29-1.792 1.532-2.774 3.15-2.774Zm7.714 7.05h-5.258c-.405.867-1.185 1.56-2.572 1.56-1.589 0-2.89-.982-3.063-3.091h11.182c.058-.492.087-.983.087-1.445 0-4.912-3.323-8.032-8.032-8.032-4.797 0-8.148 3.178-8.148 8.292s3.41 8.292 8.148 8.292c4.016 0 6.876-2.427 7.656-5.576Zm1.555-2.745c0 5.085 3.15 8.321 7.108 8.321 2.369 0 4.073-1.069 4.969-2.542V28h4.941V6.62h-4.941v7.483c-.982-1.474-2.831-2.456-4.969-2.456-3.959 0-7.108 3.178-7.108 8.263Zm12.077.029c0 2.571-1.647 3.987-3.525 3.987-1.849 0-3.525-1.444-3.525-4.016 0-2.571 1.676-3.958 3.525-3.958 1.878 0 3.525 1.416 3.525 3.987Zm23.846 0c0-5.114-3.641-8.292-8.379-8.292-4.709 0-8.379 3.178-8.379 8.292s3.583 8.292 8.321 8.292c4.739 0 8.437-3.178 8.437-8.292Zm-11.73 0c0-2.745 1.56-4.016 3.351-4.016 1.734 0 3.352 1.271 3.352 4.016 0 2.716-1.647 4.016-3.41 4.016-1.791 0-3.293-1.3-3.293-4.016Zm12.924 0c0 5.114 3.352 8.292 8.09 8.292 4.045 0 6.905-2.34 7.743-6.067h-5.258c-.434 1.184-1.214 1.849-2.572 1.849-1.762 0-2.976-1.387-2.976-4.074s1.214-4.074 2.976-4.074c1.358 0 2.167.722 2.572 1.85h5.258c-.838-3.843-3.698-6.068-7.743-6.068-4.738 0-8.09 3.207-8.09 8.292Zm18.811 2.456c0 4.19 2.341 5.605 5.692 5.605h2.514v-4.19h-1.763c-1.097 0-1.502-.404-1.502-1.357V15.98h3.236v-4.103H154.9v-3.93h-4.941v3.93h-1.964v4.103h1.964v6.414Zm26.289-2.456c0-5.114-3.641-8.292-8.379-8.292-4.71 0-8.379 3.178-8.379 8.292s3.583 8.292 8.321 8.292c4.738 0 8.437-3.178 8.437-8.292Zm-11.731 0c0-2.745 1.561-4.016 3.352-4.016 1.733 0 3.351 1.271 3.351 4.016 0 2.716-1.647 4.016-3.409 4.016-1.791 0-3.294-1.3-3.294-4.016Zm18.848.578c0-2.774 1.358-3.583 3.698-3.583h1.358v-5.23c-2.167 0-3.929 1.156-5.056 2.861v-2.687h-4.941V28h4.941v-7.483Z"/>
  <defs>
    <clipPath id="a">
      <path fill="#fff" d="M0 0h40v36H0z"/>
    </clipPath>
  </defs>
</svg>
