<svg width="79" height="71" viewBox="0 0 79 71" fill="none" xmlns="http://www.w3.org/2000/svg">
<path d="M52.9759 51.7488L69.8222 34.7892C73.3071 31.2799 75.0599 26.6499 75.0599 22.0298C75.0599 17.4096 73.3168 12.7797 69.8222 9.27114C66.3366 5.76182 61.738 3.99775 57.1484 3.99775C52.5588 3.99775 47.9617 5.75129 44.4761 9.26136L39.4813 14.2909L34.5523 9.32909C31.0675 5.82052 26.4778 4.06549 21.88 4.06549V4.0557C17.2919 4.0557 12.6925 5.81074 9.20767 9.32909C5.72209 12.8384 3.96996 17.4683 3.96996 22.0885C3.96996 26.7086 5.71163 31.3386 9.19795 34.8471L42.2882 68.1642L39.4716 71L6.37989 37.6836C2.12962 33.3946 0 27.7502 0 22.0877C0 16.4253 2.12962 10.7808 6.37989 6.49183C10.6302 2.20283 16.2454 0.0684856 21.8695 0.0684856V0.0587019C27.4855 0.0587019 33.0999 2.20283 37.3599 6.49183L39.4708 8.61639L41.6483 6.42335C45.909 2.13434 51.5145 0 57.1387 0C62.7629 0 68.3698 2.14413 72.6201 6.42335C76.8704 10.7026 79 16.356 79 22.0192C79 27.6825 76.8704 33.3261 72.6201 37.6152L55.7738 54.5763L52.9572 51.739L52.9759 51.7488ZM48.3578 45.0718L64.1973 29.1252C66.1333 27.176 67.1013 24.6021 67.1013 22.029C67.1013 19.4559 66.1333 16.8821 64.1973 14.9329C62.2703 12.9927 59.7049 12.0181 57.1484 12.0181V12.0083C54.5935 12.0083 52.0378 12.9829 50.1003 14.9329L39.4806 25.6257L28.9274 15.0006C26.9914 13.0514 24.4349 12.0768 21.8792 12.0768V12.0858C19.3236 12.0858 16.7581 13.0612 14.8311 15.0006C12.904 16.9408 11.936 19.5237 11.936 22.0968H11.9263C11.9263 24.6706 12.8943 27.2437 14.8311 29.1937L47.9213 62.5093L45.1047 65.345L12.0145 32.0294C9.31382 29.3103 7.9586 25.7039 7.9586 22.0968H7.94889C7.94889 18.5001 9.30485 14.8945 12.0145 12.1648C14.7257 9.43521 18.298 8.07076 21.88 8.07076V8.08055C25.4627 8.08055 29.0343 9.44574 31.7357 12.1648L39.4716 19.9519L47.2747 12.0956C49.9754 9.37651 53.5574 8.01206 57.1305 8.01206V8.00228C60.7028 8.00228 64.2848 9.36672 66.9952 12.0956C69.6966 14.8162 71.0519 18.4219 71.0519 22.0283C71.0519 25.6347 69.6966 29.2321 66.9952 31.961L51.1572 47.9076L48.3392 45.0703H48.3578V45.0718ZM42.6851 39.4477L58.5627 23.4627C58.9409 23.0729 59.1345 22.5558 59.1345 22.0298C59.1345 21.5037 58.9409 20.9874 58.5627 20.5969C58.1755 20.2176 57.6627 20.0219 57.1394 20.0219C56.6162 20.0219 56.1042 20.2176 55.717 20.5969L39.4716 36.9529L23.2935 20.6653C22.9168 20.286 22.3928 20.0904 21.8703 20.0904C21.3478 20.0904 20.8253 20.2845 20.447 20.6653H20.4373C20.0606 21.0454 19.876 21.5624 19.876 22.0983C19.876 22.6341 20.0598 23.1504 20.4373 23.5312L53.5193 56.837L50.7027 59.6743L17.62 26.3662V26.3564C16.4681 25.1967 15.8873 23.6471 15.8873 22.0968C15.8873 20.5464 16.4681 19.0081 17.62 17.8379C18.7719 16.6781 20.3207 16.0934 21.8516 16.0934C23.3825 16.0934 24.9305 16.6781 26.0914 17.8379L39.4514 31.2889L52.8787 17.7686C54.0306 16.6089 55.5704 16.0339 57.1095 16.0339C58.6486 16.0339 60.1885 16.6089 61.3411 17.7686H61.3508C62.5027 18.9284 63.0738 20.4779 63.0738 22.0388C63.0738 23.5997 62.5027 25.138 61.3508 26.2977V26.3075L45.4733 42.2925L42.6552 39.4567L42.6836 39.447L42.6851 39.4477Z" fill="#FFE8DA"/>
</svg>
