<svg width="48" height="43" viewBox="0 0 48 43" fill="none" xmlns="http://www.w3.org/2000/svg">
<path d="M32.1879 31.1514L42.4236 20.9422C44.541 18.8297 45.606 16.0426 45.606 13.2614C45.606 10.4802 44.5469 7.69306 42.4236 5.58099C40.3058 3.46847 37.5117 2.40654 34.7231 2.40654C31.9344 2.40654 29.1413 3.46213 27.0234 5.5751L23.9886 8.60276L20.9938 5.61587C18.8764 3.50381 16.0878 2.44732 13.2942 2.44732V2.44143C10.5064 2.44143 7.7119 3.49792 5.59453 5.61587C3.47671 7.7284 2.41213 10.5155 2.41213 13.2967C2.41213 16.0779 3.47036 18.865 5.58863 20.9771L25.6941 41.0331L23.9827 42.7402L3.87639 22.6846C1.29395 20.1027 0 16.7049 0 13.2962C0 9.88758 1.29395 6.48979 3.87639 3.90792C6.45883 1.32605 9.8706 0.0412266 13.2878 0.0412266V0.0353371C16.7 0.0353371 20.1113 1.32605 22.6997 3.90792L23.9823 5.18685L25.3053 3.86669C27.8941 1.28482 31.3 0 34.7172 0C38.1344 0 41.5412 1.29071 44.1236 3.86669C46.7061 6.44267 48 9.8459 48 13.255C48 16.6641 46.7061 20.0615 44.1236 22.6434L33.8879 32.8535L32.1765 31.1455L32.1879 31.1514ZM29.382 27.1321L39.006 17.5326C40.1823 16.3592 40.7704 14.8099 40.7704 13.2609C40.7704 11.712 40.1823 10.1626 39.006 8.9892C37.8351 7.82127 36.2764 7.23458 34.7231 7.23458V7.22869C33.1707 7.22869 31.6179 7.81538 30.4407 8.9892L23.9882 15.426L17.5761 9.02998C16.3998 7.85661 14.8465 7.26992 13.2937 7.26992V7.27536C11.7409 7.27536 10.1822 7.8625 9.0113 9.02998C7.84043 10.1979 7.25228 11.7527 7.25228 13.3017H7.24637C7.24637 14.8511 7.83453 16.4 9.0113 17.5738L29.1167 37.629L27.4054 39.336L7.29996 19.2809C5.65903 17.6441 4.83561 15.4731 4.83561 13.3017H4.8297C4.8297 11.1366 5.65358 8.9661 7.29996 7.32293C8.94726 5.67975 11.1178 4.85839 13.2942 4.85839V4.86428C15.471 4.86428 17.6411 5.6861 19.2825 7.32293L23.9827 12.0105L28.7239 7.28125C30.3648 5.64442 32.5412 4.82306 34.7122 4.82306V4.81717C36.8827 4.81717 39.0591 5.63853 40.7059 7.28125C42.3473 8.91898 43.1708 11.0895 43.1708 13.2605C43.1708 15.4314 42.3473 17.5969 40.7059 19.2397L31.0829 28.8391L29.3706 27.1312H29.382V27.1321ZM25.9352 23.7465L35.5824 14.124C35.8122 13.8893 35.9298 13.578 35.9298 13.2614C35.9298 12.9447 35.8122 12.6339 35.5824 12.3988C35.3471 12.1704 35.0356 12.0527 34.7176 12.0527C34.3997 12.0527 34.0886 12.1704 33.8533 12.3988L23.9827 22.2447L14.153 12.44C13.9241 12.2117 13.6057 12.0939 13.2883 12.0939C12.9708 12.0939 12.6533 12.2108 12.4235 12.44H12.4176C12.1887 12.6688 12.0765 12.98 12.0765 13.3026C12.0765 13.6252 12.1883 13.9359 12.4176 14.1652L32.5181 34.2144L30.8067 35.9224L10.7058 15.8718V15.8659C10.0059 15.1678 9.65305 14.2349 9.65305 13.3017C9.65305 12.3684 10.0059 11.4424 10.7058 10.7379C11.4057 10.0398 12.3468 9.68779 13.2769 9.68779C14.2071 9.68779 15.1477 10.0398 15.853 10.7379L23.9705 18.8351L32.1288 10.6963C32.8287 9.99812 33.7643 9.652 34.6995 9.652C35.6346 9.652 36.5702 9.99812 37.2706 10.6963H37.2765C37.9763 11.3944 38.3233 12.3272 38.3233 13.2668C38.3233 14.2064 37.9763 15.1324 37.2765 15.8305V15.8364L27.6293 25.459L25.9171 23.7519L25.9343 23.7461L25.9352 23.7465Z" fill="#2B6CF5"/>
</svg>
