<svg width="85" height="78" viewBox="0 0 85 78" fill="none" xmlns="http://www.w3.org/2000/svg">
<path d="M39.8695 24L34.1772 45.1765L32.2797 37.2353C34.7521 37.2353 36.7646 37.9706 38.317 39.4412C39.8695 40.9118 40.6457 42.9412 40.6457 45.5294C40.6457 48.0588 39.8407 50.1176 38.2308 51.7059C36.6783 53.2353 34.7234 54 32.366 54C29.951 54 27.9386 53.2353 26.3287 51.7059C24.7762 50.1176 24 48.0588 24 45.5294C24 44.7647 24.0575 44.0294 24.1725 43.3235C24.2875 42.5588 24.5175 41.6765 24.8625 40.6765C25.2075 39.6765 25.6962 38.3529 26.3287 36.7059L31.331 24H39.8695ZM60.2238 24L54.5315 45.1765L52.634 37.2353C55.1065 37.2353 57.1189 37.9706 58.6713 39.4412C60.2238 40.9118 61 42.9412 61 45.5294C61 48.0588 60.195 50.1176 58.5851 51.7059C57.0326 53.2353 55.0777 54 52.7203 54C50.3054 54 48.2929 53.2353 46.683 51.7059C45.1305 50.1176 44.3543 48.0588 44.3543 45.5294C44.3543 44.7647 44.4118 44.0294 44.5268 43.3235C44.6418 42.5588 44.8718 41.6765 45.2168 40.6765C45.5618 39.6765 46.0505 38.3529 46.683 36.7059L51.6853 24H60.2238Z" fill="url(#paint0_linear_162_4541)"/>
<rect x="1" y="1" width="83" height="76" rx="15" stroke="url(#paint1_linear_162_4541)" stroke-width="2"/>
<defs>
<linearGradient id="paint0_linear_162_4541" x1="60.2885" y1="24" x2="28.578" y2="57.8448" gradientUnits="userSpaceOnUse">
<stop stop-color="#1C92FF"/>
<stop offset="1" stop-color="#0044D3"/>
</linearGradient>
<linearGradient id="paint1_linear_162_4541" x1="83.3654" y1="-1.69417e-06" x2="0.885002" y2="77.7829" gradientUnits="userSpaceOnUse">
<stop stop-color="#1C92FF"/>
<stop offset="1" stop-color="#0044D3"/>
</linearGradient>
</defs>
</svg>
