<svg width="70" height="54" viewBox="0 0 70 54" fill="none" xmlns="http://www.w3.org/2000/svg">
<mask id="mask0_185_985" style="mask-type:alpha" maskUnits="userSpaceOnUse" x="0" y="0" width="70" height="54">
<rect width="70" height="54" fill="white"/>
</mask>
<g mask="url(#mask0_185_985)">
<path d="M23.01 68.78C19.1533 68.78 15.7733 67.74 12.87 65.66C9.96667 63.58 7.69167 60.655 6.045 56.885C4.44167 53.115 3.64 48.7383 3.64 43.755C3.64 38.7283 4.44167 34.3517 6.045 30.625C7.64833 26.8983 9.90167 23.995 12.805 21.915C15.7083 19.835 19.0883 18.795 22.945 18.795C26.8883 18.795 30.29 19.835 33.15 21.915C36.0533 23.995 38.3283 26.92 39.975 30.69C41.6217 34.4167 42.445 38.7717 42.445 43.755C42.445 48.7383 41.6217 53.115 39.975 56.885C38.3717 60.6117 36.1183 63.5367 33.215 65.66C30.3117 67.74 26.91 68.78 23.01 68.78ZM23.075 60.72C25.285 60.72 27.17 60.0483 28.73 58.705C30.29 57.3183 31.4817 55.3683 32.305 52.855C33.1717 50.2983 33.605 47.265 33.605 43.755C33.605 40.245 33.1717 37.2333 32.305 34.72C31.4817 32.1633 30.2683 30.2133 28.665 28.87C27.105 27.5267 25.1983 26.855 22.945 26.855C20.7783 26.855 18.915 27.5267 17.355 28.87C15.795 30.2133 14.5817 32.1633 13.715 34.72C12.8917 37.2333 12.48 40.245 12.48 43.755C12.48 47.2217 12.8917 50.2333 13.715 52.79C14.5817 55.3033 15.795 57.2533 17.355 58.64C18.9583 60.0267 20.865 60.72 23.075 60.72ZM54.2655 68V27.115H44.9055V19.575H63.1055V68H54.2655Z" fill="white"/>
</g>
</svg>
