<svg width="96" height="96" viewBox="0 0 96 96" fill="none" xmlns="http://www.w3.org/2000/svg">
<path d="M74.2066 22.1996C69.1703 17.1633 61.0123 17.1633 55.984 22.1996L33.626 44.5576C31.2205 46.9632 29.5712 50.0123 28.8712 53.3431L28.6781 54.2683C27.6323 59.2403 25.1704 63.794 21.5822 67.3822L19.3697 69.5946C17.5434 71.4209 17.5434 74.3816 19.3697 76.2079C21.196 78.0342 24.1567 78.0342 25.983 76.2079L28.6138 73.5771C31.9124 70.2785 36.1925 68.1465 40.8185 67.4948L42.3713 67.2776C46.1365 66.7466 49.6362 65.0088 52.3234 62.3217L74.2227 40.4223C79.2591 35.3859 79.2591 27.228 74.2227 22.1996H74.2066Z" stroke="#2B6CF5" stroke-width="4" stroke-miterlimit="10"/>
<path d="M65.6868 30.7117L35.4766 60.9299" stroke="#B6CAE0" stroke-width="1.5" stroke-miterlimit="10"/>
<path d="M52.1299 26.0454L58.1639 32.0875" stroke="#2B6CF5" stroke-width="4" stroke-miterlimit="10"/>
<path d="M44.5518 33.624L50.5938 39.658" stroke="#2B6CF5" stroke-width="4" stroke-miterlimit="10"/>
<path d="M36.9805 41.1948L43.0145 47.2369" stroke="#2B6CF5" stroke-width="4" stroke-miterlimit="10"/>
</svg>
