<svg width="89" height="52" viewBox="0 0 89 52" fill="none" xmlns="http://www.w3.org/2000/svg">
<rect width="41.2993" height="41.2062" rx="20.6031" fill="#BFECE1"/>
<g clip-path="url(#clip0_227_852)">
<path d="M52.4228 40.3535L62.7333 30.093C64.8661 27.9698 65.9389 25.1687 65.9389 22.3735C65.9389 19.5783 64.8721 16.7772 62.7333 14.6545C60.6 12.5313 57.7855 11.4641 54.9765 11.4641C52.1675 11.4641 49.354 12.525 47.2207 14.6486L44.1637 17.6914L41.1471 14.6895C39.0142 12.5668 36.2052 11.505 33.3912 11.505V11.4991C30.5831 11.4991 27.7682 12.5609 25.6354 14.6895C23.5021 16.8127 22.4297 19.6138 22.4297 22.409C22.4297 25.2042 23.4957 28.0053 25.6294 30.128L45.8816 50.285L44.1578 52.0006L23.9047 31.8441C21.3034 29.2492 20 25.8344 20 22.4085C20 18.9827 21.3034 15.5678 23.9047 12.973C26.506 10.3781 29.9426 9.08684 33.3848 9.08684V9.08092C36.8219 9.08092 40.2581 10.3781 42.8654 12.973L44.1573 14.2583L45.49 12.9316C48.0977 10.3367 51.5284 9.04541 54.9706 9.04541C58.4128 9.04541 61.8444 10.3426 64.4457 12.9316C67.047 15.5205 68.3504 18.9408 68.3504 22.3671C68.3504 25.7934 67.047 29.2078 64.4457 31.8027L54.1352 42.0642L52.4114 40.3476L52.4228 40.3535ZM49.5964 36.314L59.2907 26.6662C60.4756 25.487 61.068 23.9298 61.068 22.373C61.068 20.8163 60.4756 19.2591 59.2907 18.0798C58.1113 16.906 56.5412 16.3164 54.9765 16.3164V16.3105C53.4128 16.3105 51.8487 16.9001 50.6629 18.0798L44.1633 24.549L37.7044 18.1208C36.5195 16.9415 34.9549 16.3519 33.3908 16.3519V16.3574C31.8266 16.3574 30.2565 16.9475 29.0771 18.1208C27.8977 19.2946 27.3052 20.8573 27.3052 22.414H27.2993C27.2993 23.9712 27.8917 25.5279 29.0771 26.7077L49.3293 46.8637L47.6054 48.5793L27.3532 28.4233C25.7003 26.7782 24.8709 24.5963 24.8709 22.414H24.865C24.865 20.238 25.6948 18.0566 27.3532 16.4052C29.0126 14.7537 31.1989 13.9282 33.3912 13.9282V13.9342C35.584 13.9342 37.7699 14.7601 39.4232 16.4052L44.1578 21.1164L48.9335 16.3633C50.5865 14.7182 52.7788 13.8927 54.9656 13.8927V13.8868C57.1519 13.8868 59.3442 14.7123 61.0031 16.3633C62.6564 18.0093 63.4859 20.1907 63.4859 22.3726C63.4859 24.5545 62.6564 26.7309 61.0031 28.3819L51.3097 38.0296L49.585 36.3131H49.5964V36.314ZM46.1245 32.9114L55.8421 23.2404C56.0736 23.0046 56.1921 22.6918 56.1921 22.3735C56.1921 22.0552 56.0736 21.7429 55.8421 21.5066C55.6051 21.2771 55.2913 21.1587 54.971 21.1587C54.6508 21.1587 54.3374 21.2771 54.1004 21.5066L44.1578 31.402L34.2563 21.548C34.0258 21.3185 33.705 21.2001 33.3853 21.2001C33.0655 21.2001 32.7457 21.3176 32.5142 21.548H32.5083C32.2777 21.7779 32.1647 22.0907 32.1647 22.4149C32.1647 22.7391 32.2772 23.0515 32.5083 23.2818L52.7554 43.432L51.0316 45.1485L30.784 24.997V24.9911C30.079 24.2895 29.7235 23.352 29.7235 22.414C29.7235 21.4761 30.079 20.5454 30.784 19.8374C31.489 19.1357 32.4369 18.7819 33.3738 18.7819C34.3108 18.7819 35.2582 19.1357 35.9687 19.8374L44.1454 27.9753L52.3633 19.7955C53.0683 19.0938 54.0108 18.746 54.9527 18.746C55.8947 18.746 56.8372 19.0938 57.5426 19.7955H57.5485C58.2535 20.4971 58.6031 21.4346 58.6031 22.379C58.6031 23.3233 58.2535 24.254 57.5485 24.9556V24.9615L47.831 34.6325L46.1063 32.9168L46.1236 32.9109L46.1245 32.9114Z" fill="#204289"/>
</g>
<defs>
<clipPath id="clip0_227_852">
<rect width="48.3504" height="42.9547" fill="white" transform="translate(20 9.04541)"/>
</clipPath>
</defs>
</svg>
